<svg width="320" height="225" viewBox="0 0 320 225" fill="none" xmlns="http://www.w3.org/2000/svg">
<path d="M56.5591 198.443L297.706 198.443C303.628 198.443 308.429 193.643 308.429 187.721V11.1646C308.429 5.24263 303.628 0.441971 297.706 0.441971L56.5591 0.441971C50.6372 0.441971 45.8365 5.24263 45.8365 11.1646V187.721C45.8365 193.643 50.6372 198.443 56.5591 198.443Z" fill="white"/>
<path d="M297.706 198.885H56.5583C53.5983 198.882 50.7605 197.704 48.6675 195.612C46.5744 193.519 45.3971 190.681 45.3937 187.721V11.1646C45.397 8.2044 46.5744 5.36641 48.6676 3.27333C50.7609 1.18025 53.599 0.00304171 56.5591 0L297.707 0C300.667 0.00327566 303.505 1.18059 305.598 3.27365C307.691 5.3667 308.868 8.20455 308.871 11.1646V187.721C308.868 190.681 307.691 193.519 305.597 195.612C303.504 197.705 300.666 198.882 297.706 198.885ZM56.5591 0.883973C53.8332 0.886663 51.2197 1.9706 49.292 3.89796C47.3643 5.82531 46.2799 8.43865 46.2768 11.1646V187.721C46.2799 190.446 47.3641 193.059 49.2914 194.987C51.2187 196.914 53.8318 197.998 56.5574 198.001H297.705C300.431 197.998 303.044 196.914 304.971 194.987C306.898 193.059 307.983 190.446 307.986 187.721V11.1646C307.983 8.43911 306.899 5.82617 304.971 3.89889C303.044 1.97161 300.431 0.887365 297.706 0.883973H56.5591Z" fill="#292A2E"/>
<g opacity="0.14">
<path d="M125.096 37.0632C123.478 32.1487 120.466 27.8104 116.427 24.5764C112.388 21.3425 107.496 19.3522 102.347 18.8479C97.1973 18.3435 92.0123 19.3468 87.4227 21.7357C82.8331 24.1246 79.0369 27.796 76.4959 32.3032C73.955 36.8104 72.7789 41.9589 73.1108 47.1224C73.4428 52.2858 75.2684 57.2414 78.3656 61.3861C81.4628 65.5308 85.6979 68.6859 90.5556 70.4675C95.4133 72.249 100.684 72.5801 105.727 71.4206C104.564 67.8951 104.15 64.1658 104.511 60.4712C104.872 56.7765 106 53.1979 107.823 49.9642C109.646 46.7305 112.124 43.9128 115.098 41.6913C118.073 39.4699 121.478 37.8936 125.096 37.0632Z" fill="#367CFF"/>
<path d="M131.066 36.3843C129.057 36.3855 127.054 36.6133 125.096 37.0632C126.258 40.5887 126.673 44.318 126.312 48.0127C125.951 51.7074 124.823 55.2861 123 58.5199C121.176 61.7537 118.699 64.5714 115.724 66.7928C112.75 69.0142 109.345 70.5904 105.727 71.4206C107.266 76.0889 110.065 80.2413 113.815 83.4195C117.565 86.5977 122.12 88.6781 126.978 89.4312C131.835 90.1843 136.807 89.5808 141.343 87.6874C145.879 85.7939 149.804 82.684 152.685 78.7009C155.566 74.7178 157.29 70.0163 157.668 65.1153C158.045 60.2142 157.062 55.304 154.825 50.9266C152.589 46.5491 149.187 42.8746 144.994 40.3085C140.801 37.7423 135.981 36.3843 131.066 36.3843Z" fill="#367CFF"/>
</g>
<g opacity="0.22">
<path d="M99.7571 72.541C94.3927 72.5411 89.1487 70.9504 84.6883 67.9701C80.2278 64.9899 76.7514 60.7538 74.6984 55.7977C72.6455 50.8417 72.1083 45.3881 73.1549 40.1267C74.2014 34.8654 76.7846 30.0325 80.5779 26.2392C84.3711 22.446 89.204 19.8628 94.4654 18.8163C99.7267 17.7697 105.18 18.3069 110.136 20.3598C115.092 22.4127 119.328 25.8892 122.309 30.3496C125.289 34.81 126.88 40.054 126.88 45.4185C126.872 52.6093 124.011 59.5034 118.927 64.5881C113.842 69.6728 106.948 72.5329 99.7571 72.541ZM99.7571 19.1795C94.5675 19.1794 89.4944 20.7183 85.1794 23.6014C80.8644 26.4845 77.5012 30.5824 75.5152 35.377C73.5291 40.1715 73.0094 45.4473 74.0218 50.5372C75.0342 55.6271 77.5332 60.3025 81.2028 63.9721C84.8723 67.6417 89.5477 70.1408 94.6375 71.1532C99.7274 72.1657 105.003 71.6461 109.798 69.6602C114.592 67.6742 118.69 64.3111 121.574 59.9961C124.457 55.6811 125.996 50.6081 125.996 45.4185C125.988 38.462 123.221 31.7927 118.302 26.8737C113.383 21.9547 106.714 19.1876 99.7571 19.1795Z" fill="#367CFF"/>
<path d="M131.065 90.1882C125.701 90.1883 120.457 88.5976 115.996 85.6173C111.536 82.6371 108.06 78.4011 106.007 73.445C103.954 68.489 103.416 63.0354 104.463 57.7741C105.509 52.5127 108.093 47.6798 111.886 43.8866C115.679 40.0933 120.512 37.5101 125.773 36.4635C131.035 35.4169 136.488 35.954 141.444 38.0069C146.4 40.0597 150.636 43.5361 153.617 47.9965C156.597 52.4568 158.188 57.7008 158.188 63.0652C158.18 70.2562 155.32 77.1503 150.235 82.2351C145.15 87.3199 138.256 90.1801 131.065 90.1882ZM131.065 36.8263C125.876 36.8262 120.803 38.365 116.488 41.2481C112.172 44.1312 108.809 48.2292 106.823 53.0237C104.837 57.8182 104.318 63.094 105.33 68.1839C106.342 73.2738 108.841 77.9492 112.511 81.6188C116.18 85.2885 120.856 87.7875 125.946 88.8C131.036 89.8125 136.311 89.2929 141.106 87.3069C145.9 85.321 149.998 81.9579 152.882 77.6429C155.765 73.3279 157.304 68.2548 157.304 63.0652C157.296 56.1087 154.529 49.4392 149.61 44.5202C144.691 39.6011 138.022 36.8341 131.065 36.8263Z" fill="#367CFF"/>
</g>
<path d="M318.764 224.465H12.0029C11.8857 224.465 11.7733 224.418 11.6904 224.335C11.6075 224.252 11.561 224.14 11.561 224.023C11.561 223.905 11.6075 223.793 11.6904 223.71C11.7733 223.627 11.8857 223.581 12.0029 223.581H318.764C318.881 223.581 318.994 223.627 319.076 223.71C319.159 223.793 319.206 223.905 319.206 224.023C319.206 224.14 319.159 224.252 319.076 224.335C318.994 224.418 318.881 224.465 318.764 224.465Z" fill="#292A2E"/>
<path d="M170.652 100.95L170.21 93.1411C170.229 92.586 170.036 92.0444 169.671 91.626C169.306 91.2075 168.795 90.9433 168.243 90.8869C167.957 90.8677 167.67 90.9069 167.4 91.0023C167.129 91.0976 166.881 91.247 166.67 91.4414C166.46 91.6358 166.291 91.8711 166.174 92.1329C166.057 92.3948 165.995 92.6776 165.991 92.9643L165.638 114.767" fill="#E98862"/>
<path d="M181.556 85.4041L182.603 89.2065L162.685 94.9607L161.637 91.1579L181.556 85.4041Z" fill="#0CBC8B"/>
<path opacity="0.5" d="M181.556 85.4041L182.603 89.2065L162.685 94.9607L161.637 91.1579L181.556 85.4041Z" fill="white"/>
<path d="M158.488 92.0352L159.535 95.8381L162.685 94.9607L161.637 91.1579L158.488 92.0352Z" fill="#262626"/>
<path d="M181.556 85.4041C181.556 85.4041 182.718 85.6865 183.758 85.9429C184.582 86.1462 185.33 86.3332 185.36 86.3495C185.002 86.7846 184.618 87.1979 184.211 87.5871C183.455 88.3592 182.604 89.2083 182.604 89.2083L181.556 85.4041Z" fill="#367CFF"/>
<path opacity="0.9" d="M181.556 85.4041C181.556 85.4041 182.718 85.6865 183.758 85.9429C184.582 86.1462 185.33 86.3332 185.36 86.3495C185.002 86.7846 184.618 87.1979 184.211 87.5871C183.455 88.3592 182.604 89.2083 182.604 89.2083L181.556 85.4041Z" fill="white"/>
<path d="M183.758 85.9429C184.582 86.1462 185.33 86.3332 185.36 86.3495C185.002 86.7846 184.618 87.1979 184.211 87.5871L183.758 85.9429Z" fill="#0CBC8B"/>
<path d="M165.636 114.766L172.445 115.051C174.56 115.14 176.654 114.595 178.457 113.486C180.26 112.377 181.691 110.755 182.567 108.828L186.516 100.09C186.73 99.6399 186.782 99.1298 186.663 98.6459C186.544 98.162 186.261 97.7341 185.863 97.4345C185.498 97.1717 185.058 97.0325 184.608 97.0372C184.159 97.0418 183.722 97.1902 183.362 97.4606C183.345 97.4307 183.32 97.4057 183.291 97.3881C183.262 97.3735 183.23 97.3662 183.198 97.3669C183.166 97.3676 183.134 97.3762 183.106 97.3921L183.838 95.7815C184.077 95.2808 184.118 94.7078 183.951 94.1783C183.785 93.6488 183.423 93.2023 182.94 92.9289C182.5 92.6999 181.993 92.6334 181.508 92.7413C181.024 92.8491 180.593 93.1243 180.291 93.5185C180.283 93.4978 180.271 93.4786 180.256 93.462L180.557 92.799C180.771 92.3489 180.822 91.8387 180.704 91.3547C180.585 90.8707 180.302 90.4427 179.904 90.1431C179.461 89.824 178.911 89.6889 178.371 89.7662C177.83 89.8435 177.34 90.1272 177.004 90.5577C176.991 90.5522 176.977 90.5483 176.962 90.5462L170.329 95.3846" fill="#E98862"/>
<path d="M180.586 86.0105C180.464 86.5084 180.172 86.948 179.76 87.2534C178.632 88.2403 177.639 89.3708 176.805 90.616C175.532 92.3893 174.495 95.2569 174.203 96.2138C174.049 96.7182 173.701 97.1408 173.235 97.3884C172.769 97.6361 172.224 97.6886 171.72 97.5344C171.215 97.3802 170.793 97.0319 170.545 96.5662C170.297 96.1004 170.245 95.5554 170.399 95.0509C170.45 94.8847 171.663 90.9581 173.574 88.296C174.472 87.0456 176.677 84.5422 177.516 83.9685C177.843 83.7452 178.23 83.6246 178.626 83.6221C179.022 83.6197 179.41 83.7356 179.739 83.955C180.069 84.1743 180.326 84.4871 180.477 84.8534C180.628 85.2196 180.666 85.6225 180.586 86.0105Z" fill="#E98862"/>
<path opacity="0.2" d="M177.131 90.7654C177.128 90.7883 177.121 90.8106 177.111 90.8313L174.786 95.3948C174.774 95.418 174.758 95.4386 174.738 95.4556C174.718 95.4725 174.695 95.4853 174.67 95.4934C174.645 95.5014 174.619 95.5045 174.593 95.5024C174.567 95.5004 174.542 95.4932 174.519 95.4814C174.495 95.4695 174.475 95.4532 174.458 95.4334C174.441 95.4136 174.428 95.3906 174.42 95.3658C174.412 95.3411 174.409 95.3149 174.411 95.2889C174.413 95.263 174.42 95.2376 174.432 95.2144L176.757 90.6514C176.779 90.6101 176.814 90.5775 176.857 90.5595C176.899 90.5414 176.947 90.539 176.992 90.5525C177.036 90.5661 177.074 90.5948 177.1 90.6337C177.125 90.6726 177.136 90.7192 177.131 90.7654H177.131Z" fill="#0A0A0A"/>
<path opacity="0.2" d="M180.307 93.6083C180.304 93.6306 180.298 93.6523 180.287 93.6723L178.488 97.2736C178.463 97.3174 178.422 97.3498 178.373 97.3644C178.325 97.3789 178.273 97.3744 178.228 97.3519C178.182 97.3293 178.148 97.2903 178.13 97.2429C178.113 97.1955 178.114 97.1433 178.134 97.0969L179.934 93.496C179.955 93.454 179.99 93.4208 180.033 93.4021C180.076 93.3835 180.124 93.3807 180.169 93.3942C180.213 93.4077 180.252 93.4367 180.277 93.4759C180.303 93.5152 180.314 93.5622 180.308 93.6087L180.307 93.6083Z" fill="#0A0A0A"/>
<path opacity="0.2" d="M183.395 97.5879C183.391 97.6118 183.384 97.635 183.373 97.6564L182.483 99.336C182.458 99.3804 182.416 99.4131 182.366 99.4273C182.317 99.4414 182.264 99.4359 182.219 99.4119C182.173 99.3878 182.139 99.3472 182.123 99.2984C182.107 99.2496 182.11 99.1966 182.133 99.1503L183.023 97.4708C183.044 97.4299 183.08 97.3979 183.123 97.3804C183.165 97.3629 183.213 97.3609 183.257 97.3748C183.301 97.3887 183.339 97.4176 183.364 97.4565C183.39 97.4955 183.4 97.5419 183.395 97.5879Z" fill="#0A0A0A"/>
<path d="M162.245 100.64L145.587 148.419L118.515 113.016L93.1834 134.184L139.983 184.158C141.647 186.059 143.786 187.486 146.18 188.293C148.575 189.099 151.141 189.258 153.616 188.751C156.092 188.245 158.389 187.091 160.275 185.409C162.16 183.726 163.566 181.575 164.35 179.172L187.161 108.817L162.245 100.64Z" fill="#0094FF"/>
<path d="M14.4096 203.212C12.0878 203.212 9.80045 202.651 7.74217 201.577C5.6839 200.502 3.91568 198.947 2.58808 197.042C1.26048 195.137 0.412805 192.94 0.117238 190.637C-0.17833 188.334 0.0869604 185.994 0.890521 183.816C1.70599 181.606 20.9015 129.546 24.5408 120.166L51.4104 130.591C49.3645 135.865 41.9519 155.855 35.994 171.96L45.8891 170.885L49.0043 199.537L15.9689 203.128C15.451 203.184 14.9304 203.212 14.4096 203.212Z" fill="#0094FF"/>
<path d="M31.6788 201.74L27.2846 223.612H112.633L107.717 201.324L31.6788 201.74Z" fill="#262626"/>
<path d="M50.1327 103.993C43.0016 104.523 35.7305 106.839 30.3759 111.579C22.3003 118.727 23.019 123.195 27.0504 142.991C30.5191 160.024 29.1427 167.467 31.4632 198.899C31.5317 199.825 31.678 201.74 31.678 201.74L107.959 201.613C107.959 201.613 115.106 159.912 119.052 140.678C122.054 126.056 129.935 108.305 96.7012 104.728C96.6137 104.718 69.9588 102.522 50.1327 103.993Z" fill="#0094FF"/>
<path d="M96.7012 104.729C96.6128 104.718 94.1916 113.829 75.2967 112.411C62.2139 111.431 59.0263 102.527 58.7266 102.527C60.137 102.227 62.4269 101.916 63.0537 101.582C65.1133 100.477 66.6139 99.1278 67.3688 96.2368C67.9597 93.9756 68.2607 85.2706 68.2607 80.9038L88.3892 85.4267C88.1085 90.353 86.1448 101.774 93.0274 103.795C94.1726 104.132 95.4062 104.437 96.7012 104.729Z" fill="#E98862"/>
<path d="M87.6909 95.1124C79.7559 95.7382 69.5624 92.388 67.6247 81.8011L65.8775 72.2484C63.9416 61.6615 67.9323 52.062 77.8995 50.2375C87.8677 48.4143 96.8882 55.6341 98.8245 66.221L99.598 70.45C100.344 74.514 101.851 93.995 87.6909 95.1124Z" fill="#E98862"/>
<path d="M95.0504 85.3917C93.6259 78.2346 92.9731 73.4581 93.0486 68.4226C95.0548 64.9035 94.5275 60.8646 94.0714 59.1192C96.0378 60.1919 96.8599 60.309 98.7123 60.309C98.7123 60.309 95.3943 46.9933 84.117 43.4101C82.0436 42.603 76.7491 41.5834 69.7188 42.5478C63.7392 43.3677 48.9998 47.8388 46.8942 64.4323V64.4416C46.8244 64.9919 45.4091 80.2806 42.5879 87.6163C38.7948 97.4774 33.4698 100.541 33.605 111.919C33.7787 126.554 60.6837 128.502 76.9117 127.407C93.1397 126.312 102.199 120.976 102.316 110.429C102.445 98.6133 97.9008 99.7121 95.0504 85.3917Z" fill="#0A0A0A"/>
<path d="M95.0548 79.3927C92.0259 79.9469 88.9775 77.1553 88.425 74.126C87.8725 71.0966 90.021 68.9768 93.0504 68.4243L95.0548 79.3927Z" fill="#E98862"/>
<path d="M115.523 159.917C115.511 159.917 115.499 159.916 115.487 159.913C115.463 159.909 115.439 159.899 115.418 159.885C115.397 159.871 115.378 159.854 115.364 159.833C115.35 159.812 115.34 159.788 115.335 159.764C115.33 159.739 115.329 159.714 115.334 159.689L118.533 139.653C118.544 139.605 118.574 139.563 118.615 139.536C118.657 139.509 118.707 139.499 118.755 139.508C118.804 139.517 118.847 139.545 118.876 139.585C118.905 139.625 118.917 139.675 118.91 139.724L115.713 159.76C115.705 159.805 115.681 159.844 115.646 159.873C115.612 159.902 115.568 159.917 115.523 159.917Z" fill="#0C0C0C"/>
<path d="M31.6788 201.932C31.6292 201.932 31.5814 201.913 31.5456 201.878C31.5099 201.844 31.4889 201.797 31.487 201.747L29.0968 139.696C29.0957 139.671 29.0996 139.646 29.1083 139.622C29.117 139.598 29.1303 139.576 29.1474 139.558C29.1645 139.539 29.1852 139.524 29.2081 139.514C29.231 139.503 29.2558 139.497 29.2811 139.496C29.3314 139.497 29.3797 139.516 29.4166 139.55C29.4534 139.584 29.4762 139.631 29.4804 139.681L31.8711 201.733C31.873 201.784 31.8546 201.833 31.82 201.871C31.7853 201.908 31.7373 201.93 31.6864 201.932H31.6788Z" fill="#0C0C0C"/>
<path opacity="0.21" d="M196.82 121.198C196.756 121.198 196.693 121.185 196.635 121.158C196.576 121.131 196.525 121.092 196.483 121.043L192.678 116.571C192.64 116.527 192.612 116.476 192.594 116.42C192.576 116.365 192.569 116.307 192.574 116.249C192.578 116.191 192.594 116.134 192.621 116.083C192.647 116.031 192.683 115.985 192.728 115.947C192.772 115.909 192.823 115.881 192.878 115.863C192.934 115.845 192.992 115.838 193.05 115.843C193.108 115.847 193.164 115.863 193.216 115.89C193.268 115.916 193.314 115.952 193.352 115.997L196.615 119.832L200.89 104.247C200.916 104.153 200.971 104.071 201.048 104.012C201.125 103.953 201.219 103.922 201.316 103.922H201.319L241.79 104.143C241.848 104.143 241.905 104.154 241.959 104.177C242.012 104.199 242.061 104.232 242.102 104.273C242.143 104.314 242.175 104.363 242.197 104.417C242.219 104.47 242.231 104.528 242.23 104.586C242.23 104.644 242.219 104.701 242.196 104.755C242.174 104.808 242.141 104.857 242.1 104.898C242.059 104.939 242.01 104.971 241.956 104.993C241.903 105.015 241.845 105.027 241.787 105.027H241.785L201.652 104.808L197.245 120.873C197.219 120.966 197.164 121.049 197.087 121.107C197.01 121.166 196.916 121.198 196.819 121.198L196.82 121.198Z" fill="#367CFF"/>
<g opacity="0.2">
<path d="M206.381 114.916C206.846 113.809 207.424 112.752 208.105 111.762C208.334 111.43 208.645 110.839 209.125 111.029C209.576 111.293 209.974 111.638 210.3 112.045C210.943 112.766 211.685 113.392 212.503 113.906C213.342 114.371 214.327 114.499 215.256 114.263C216.211 113.955 217.126 113.532 217.98 113.004C218.951 112.463 220.048 112.184 221.16 112.196C222.362 112.265 223.553 112.46 224.714 112.778C225.92 113.059 227.13 113.305 228.357 113.478C231.131 113.872 233.941 113.954 236.733 113.723C237.356 113.671 237.362 112.691 236.733 112.744C234.14 112.963 231.531 112.908 228.95 112.58C227.662 112.407 226.384 112.17 225.12 111.868C223.918 111.548 222.691 111.334 221.451 111.229C220.283 111.16 219.116 111.381 218.054 111.874C217.141 112.299 216.301 112.898 215.341 113.218C214.888 113.38 214.402 113.429 213.926 113.359C213.449 113.29 212.997 113.105 212.609 112.821C211.836 112.204 211.108 111.532 210.431 110.811C209.992 110.407 209.491 109.969 208.855 109.995C208.584 110.034 208.325 110.133 208.097 110.285C207.869 110.437 207.677 110.638 207.537 110.873C206.728 111.97 206.056 113.161 205.535 114.42C205.474 114.533 205.458 114.665 205.491 114.79C205.524 114.914 205.603 115.021 205.712 115.09C205.824 115.154 205.958 115.172 206.083 115.139C206.209 115.106 206.316 115.025 206.382 114.913L206.381 114.916Z" fill="#367CFF"/>
</g>
<path d="M257.734 223.318H307.02V209.174H257.734V223.318Z" fill="#367CFF"/>
<path opacity="0.69" d="M257.734 223.318H307.02V209.174H257.734V223.318Z" fill="white"/>
<path opacity="0.65" d="M264.353 223.318H270.812V209.174H264.353V223.318Z" fill="white"/>
<path opacity="0.65" d="M273.871 220.244H300.723V211.862H273.871V220.244Z" fill="white"/>
<path d="M245.983 209.187H294.592V195.044H245.983V209.187Z" fill="#367CFF"/>
<path opacity="0.6" d="M245.983 209.187H294.592V195.044H245.983V209.187Z" fill="white"/>
<path opacity="0.42" d="M252.195 206.114H278.678V197.732H252.195V206.114Z" fill="white"/>
<path opacity="0.42" d="M281.695 209.187H288.064V195.044H281.695V209.187Z" fill="white"/>
<path d="M222.249 223.317L254.268 185.849L243.516 176.66L211.497 214.128L222.249 223.317Z" fill="#367CFF"/>
<path opacity="0.78" d="M222.249 223.317L254.268 185.849L243.516 176.66L211.497 214.128L222.249 223.317Z" fill="white"/>
<path opacity="0.2" d="M226.549 218.286L230.745 213.376L219.993 204.187L215.797 209.097L226.549 218.286Z" fill="#367CFF"/>
<path opacity="0.2" d="M230.395 209.053L247.841 188.64L241.469 183.194L224.024 203.608L230.395 209.053Z" fill="#367CFF"/>
<path opacity="0.21" d="M266.002 173.1L237.838 124.318C237.823 124.293 237.805 124.271 237.784 124.25C237.743 124.202 237.693 124.164 237.636 124.137C237.58 124.111 237.518 124.097 237.455 124.097C237.392 124.097 237.331 124.111 237.274 124.137C237.217 124.164 237.167 124.202 237.126 124.25C237.106 124.271 237.087 124.293 237.072 124.318L208.908 173.1C208.869 173.167 208.849 173.243 208.849 173.32C208.849 173.398 208.869 173.474 208.908 173.541C208.947 173.609 209.003 173.664 209.07 173.703C209.137 173.742 209.213 173.762 209.291 173.762H265.619C265.697 173.762 265.773 173.742 265.84 173.703C265.907 173.664 265.963 173.609 266.002 173.541C266.041 173.474 266.061 173.398 266.061 173.32C266.061 173.243 266.041 173.167 266.002 173.1ZM237.013 172.879H220.508C220.73 171.052 220.259 169.208 219.189 167.711C218.119 166.214 216.527 165.172 214.727 164.79L237.013 126.187V172.879ZM237.897 126.188L260.146 164.725C260.1 164.716 260.053 164.714 260.006 164.719C258.134 165.033 256.455 166.055 255.318 167.575C254.18 169.095 253.672 170.994 253.899 172.879H237.897V126.188ZM214.262 165.594C215.925 165.878 217.411 166.797 218.41 168.155C219.409 169.514 219.841 171.207 219.617 172.879H210.057L214.262 165.594ZM254.789 172.879C254.565 171.205 254.998 169.511 255.999 168.151C257 166.792 258.49 165.874 260.154 165.591C260.229 165.578 260.299 165.545 260.357 165.496C260.415 165.447 260.46 165.384 260.486 165.313L264.854 172.879H254.789Z" fill="#367CFF"/>
<g opacity="0.2">
<path d="M289.441 28.1165H185.468C185.351 28.1165 185.239 28.07 185.156 27.9871C185.073 27.9042 185.026 27.7918 185.026 27.6745C185.026 27.5573 185.073 27.4449 185.156 27.362C185.239 27.2791 185.351 27.2325 185.468 27.2325H289.441C289.558 27.2325 289.671 27.2791 289.754 27.362C289.837 27.4449 289.883 27.5573 289.883 27.6745C289.883 27.7918 289.837 27.9042 289.754 27.9871C289.671 28.07 289.558 28.1165 289.441 28.1165Z" fill="#367CFF"/>
</g>
<g opacity="0.2">
<path d="M180.627 87.6755C180.51 87.6755 180.397 87.6289 180.314 87.546C180.231 87.4631 180.185 87.3507 180.185 87.2335V31.7956C180.185 31.6784 180.231 31.566 180.314 31.4831C180.397 31.4002 180.51 31.3536 180.627 31.3536C180.744 31.3536 180.857 31.4002 180.939 31.4831C181.022 31.566 181.069 31.6784 181.069 31.7956V87.2335C181.069 87.3507 181.022 87.4631 180.939 87.546C180.857 87.6289 180.744 87.6755 180.627 87.6755Z" fill="#367CFF"/>
</g>
<path d="M289.883 76.8919V66.7841C289.886 66.7562 289.886 66.7281 289.883 66.7001V55.1387C289.886 55.1107 289.886 55.0826 289.883 55.0547V43.784C289.886 43.7561 289.886 43.728 289.883 43.7001V31.9017C289.886 31.8736 289.886 31.8453 289.883 31.8172V31.7956C289.883 31.6784 289.837 31.566 289.754 31.4831C289.671 31.4002 289.558 31.3536 289.441 31.3536H185.468C185.351 31.3536 185.239 31.4002 185.156 31.4831C185.073 31.566 185.026 31.6784 185.026 31.7956V87.2335C185.026 87.2445 185.032 87.2534 185.033 87.264C185.034 87.3635 185.074 87.4585 185.144 87.5292C185.149 87.5336 185.15 87.5402 185.155 87.5447C185.196 87.5859 185.245 87.6187 185.299 87.641C185.353 87.6634 185.41 87.675 185.468 87.675H233.346C233.409 87.716 233.482 87.7378 233.557 87.7378C233.633 87.7378 233.706 87.716 233.769 87.675H245.971C246.034 87.716 246.108 87.7378 246.183 87.7378C246.258 87.7378 246.332 87.716 246.395 87.675H257.305C257.368 87.716 257.442 87.7378 257.517 87.7378C257.592 87.7378 257.666 87.716 257.729 87.675H268.513C268.576 87.716 268.65 87.7378 268.725 87.7378C268.8 87.7378 268.874 87.716 268.937 87.675H279.005C279.068 87.716 279.142 87.7378 279.217 87.7378C279.292 87.7378 279.366 87.716 279.429 87.675H289.442C289.559 87.675 289.671 87.6285 289.754 87.5456C289.837 87.4627 289.884 87.3503 289.884 87.2331V76.979C289.887 76.95 289.886 76.9208 289.883 76.8919ZM269.861 86.7924L288.999 67.8131V76.7633L279.093 86.7924H269.861ZM258.641 86.7924L289 56.18V66.5667L268.606 86.7906L258.641 86.7924ZM247.308 86.7924L289 44.8218V54.9247L257.395 86.792L247.308 86.7924ZM234.694 86.7924L288.999 32.928V43.5666L246.061 86.7928L234.694 86.7924ZM222.419 86.7924L277.731 32.2376H288.441L233.439 86.7915L222.419 86.7924ZM210.176 86.7924L265.487 32.2376H276.472L221.159 86.7915L210.176 86.7924ZM198.511 86.7924L253.822 32.2376H264.228L208.915 86.7915L198.511 86.7924ZM186.544 86.7924L241.543 32.2376H252.563L197.25 86.7915L186.544 86.7924ZM185.91 42.3383L195.886 32.2376H205.121L185.91 51.2872V42.3383ZM185.91 52.5331L206.374 32.2376H216.339L185.91 62.9212V52.5331ZM185.91 64.1764L217.585 32.2376H227.673L185.91 74.2793V64.1764ZM185.91 75.5354L228.919 32.2393H240.288L185.91 86.1727V75.5354ZM194.644 32.2393L185.91 41.0791V32.2393H194.644ZM280.337 86.7915L289 78.0207V86.7915H280.337Z" fill="#0CBC8B"/>
</svg>
